<svg width="28" height="28" viewBox="0 0 28 28" fill="none" xmlns="http://www.w3.org/2000/svg">
<circle cx="14.5" cy="13.5" r="10" stroke="black"/>
<g clip-path="url(#clip0_2_156)">
<path d="M16.7378 8.94125C17.2781 8.74125 17.6041 8.14375 17.5603 7.52125C17.5579 7.49266 17.5474 7.46574 17.5304 7.44455C17.5135 7.42336 17.4909 7.40904 17.4662 7.40375C17.4662 7.40375 17.2716 7.35625 17.2278 7.34625C17.2059 7.34125 17.1972 7.30875 17.2103 7.29125C17.2387 7.25625 17.3744 7.08125 17.3744 7.08125C17.4094 7.03875 17.4159 6.97125 17.3897 6.92125C17.1075 6.38875 16.5366 6.12375 15.9941 6.32625C15.8387 6.38375 15.7031 6.48875 15.585 6.62125C15.6594 6.45125 15.7031 6.27375 15.7031 6.08625C15.7031 5.43625 15.3072 4.89625 14.7756 4.75375C14.7509 4.74803 14.7252 4.75121 14.7021 4.76284C14.6789 4.77448 14.6596 4.79401 14.6466 4.81875C14.6466 4.81875 14.5459 5.01625 14.5241 5.06125C14.5131 5.08375 14.4825 5.08125 14.4737 5.06375C14.4519 5.02125 14.3512 4.81875 14.3512 4.81875C14.325 4.76875 14.2725 4.73875 14.2244 4.75375C13.695 4.89375 13.2969 5.43375 13.2969 6.08375C13.2969 6.27125 13.3428 6.44875 13.415 6.61875C13.2969 6.48625 13.1634 6.38375 13.0081 6.32625C12.4656 6.12375 11.8947 6.38875 11.6125 6.92125C11.5862 6.97125 11.5928 7.03625 11.6278 7.08125C11.6278 7.08125 11.7612 7.25125 11.7919 7.28875C11.8072 7.30625 11.7962 7.34125 11.7766 7.34625L11.5359 7.40375C11.4856 7.41625 11.4462 7.46375 11.4419 7.52125C11.4186 7.82929 11.4873 8.13724 11.6366 8.39505C11.7859 8.65285 12.0072 8.84535 12.2644 8.94125C12.4219 8.99875 12.5837 9.00625 12.75 8.97625C12.6012 9.06375 12.47 9.17875 12.3737 9.33125C12.0391 9.85625 12.0828 10.5588 12.4394 11.0313C12.4722 11.0763 12.5291 11.0888 12.5772 11.0638C12.5772 11.0638 12.7587 10.9713 12.8003 10.9488C12.82 10.9388 12.8441 10.9588 12.8419 10.9813L12.8156 11.2613C12.8112 11.3188 12.8375 11.3788 12.8856 11.4013C13.3887 11.6413 13.9859 11.4713 14.3206 10.9463C14.4169 10.7938 14.4716 10.6213 14.5 10.4338C14.5284 10.6213 14.5831 10.7963 14.6794 10.9463C15.0141 11.4713 15.6112 11.6413 16.1144 11.4013C16.1625 11.3788 16.1887 11.3213 16.1844 11.2613C16.1844 11.2613 16.1625 11.0338 16.1581 10.9838C16.1559 10.9588 16.18 10.9388 16.1997 10.9488L16.425 11.0638C16.4709 11.0888 16.53 11.0763 16.5628 11.0313C16.9194 10.5588 16.9631 9.85625 16.6284 9.33125C16.5322 9.17875 16.4009 9.06625 16.2522 8.97625C16.4184 9.00625 16.5803 8.99875 16.7378 8.94125ZM14.9012 8.65525L15.0659 8.91525C15.1138 8.9096 15.162 8.92218 15.203 8.95102C15.244 8.97987 15.2756 9.02337 15.2927 9.07479C15.3099 9.12621 15.3117 9.18267 15.298 9.23541C15.2842 9.28815 15.2556 9.33422 15.2166 9.36648C15.1776 9.39874 15.1303 9.41539 15.0822 9.41383C15.034 9.41228 14.9877 9.39261 14.9503 9.35789C14.913 9.32316 14.8867 9.27532 14.8755 9.22177C14.8644 9.16823 14.869 9.11198 14.8887 9.06175L14.724 8.802C14.6541 8.83814 14.5783 8.8568 14.5016 8.85671C14.4249 8.85663 14.3491 8.8378 14.2793 8.8015L14.1135 9.06225C14.133 9.11253 14.1375 9.16879 14.1263 9.2223C14.115 9.27581 14.0887 9.32358 14.0512 9.3582C14.0138 9.39282 13.9674 9.41237 13.9193 9.4138C13.8711 9.41522 13.8239 9.39846 13.785 9.36611C13.746 9.33375 13.7175 9.28761 13.7038 9.23484C13.6902 9.18207 13.6921 9.12563 13.7094 9.07425C13.7267 9.02288 13.7583 8.97945 13.7993 8.9507C13.8404 8.92195 13.8886 8.90949 13.9365 8.91525L14.1025 8.6545C14.0508 8.58981 14.0117 8.51322 13.988 8.42988C13.9643 8.34653 13.9564 8.25836 13.9649 8.17125L13.697 8.072C13.6612 8.10883 13.6158 8.13113 13.5677 8.13545C13.5197 8.13977 13.4718 8.12586 13.4314 8.09589C13.3911 8.06592 13.3605 8.02155 13.3444 7.96968C13.3283 7.9178 13.3277 7.86131 13.3425 7.80897C13.3574 7.75663 13.387 7.71136 13.4267 7.68019C13.4664 7.64902 13.5139 7.63368 13.562 7.63656C13.6101 7.63945 13.656 7.66038 13.6927 7.69612C13.7293 7.73187 13.7545 7.78042 13.7646 7.83425L14.0323 7.9335C14.0703 7.85718 14.1221 7.79099 14.1843 7.73935C14.2465 7.68771 14.3175 7.6518 14.3928 7.634V7.313C14.3511 7.28549 14.3185 7.24301 14.3001 7.19217C14.2816 7.14132 14.2784 7.08495 14.2909 7.03179C14.3033 6.97863 14.3308 6.93166 14.369 6.89816C14.4072 6.86466 14.454 6.8465 14.5022 6.8465C14.5503 6.8465 14.5971 6.86466 14.6353 6.89816C14.6735 6.93166 14.701 6.97863 14.7135 7.03179C14.7259 7.08495 14.7227 7.14132 14.7043 7.19217C14.6858 7.24301 14.6533 7.28549 14.6116 7.313V7.634C14.7658 7.67025 14.8959 7.7815 14.9716 7.933L15.2374 7.8345C15.2473 7.78064 15.2725 7.73204 15.3091 7.69623C15.3457 7.66041 15.3916 7.6394 15.4397 7.63643C15.4878 7.63347 15.5354 7.64873 15.5751 7.67985C15.6148 7.71096 15.6445 7.75619 15.6594 7.80852C15.6743 7.86085 15.6738 7.91734 15.6577 7.96925C15.6417 8.02116 15.6111 8.06557 15.5708 8.0956C15.5304 8.12562 15.4825 8.13959 15.4345 8.13532C15.3865 8.13105 15.341 8.1088 15.3052 8.072L15.0392 8.171C15.0478 8.25834 15.04 8.34678 15.0161 8.43035C14.9923 8.51392 14.9531 8.59045 14.9012 8.65525Z" fill="black"/>
</g>
<g clip-path="url(#clip1_2_156)">
<path d="M10.7857 14.8572V22.5714M18.2143 14.8572V22.5714M8.46429 17.8572H20.5357M14.5 14.8572V17.8572M20.5357 14.4286C20.5357 14.5423 20.4868 14.6513 20.3997 14.7316C20.3127 14.812 20.1946 14.8572 20.0714 14.8572H8.92858C8.80544 14.8572 8.68735 14.812 8.60028 14.7316C8.51321 14.6513 8.46429 14.5423 8.46429 14.4286V11.4286C10.2439 12.547 12.3471 13.1451 14.5 13.1451C16.653 13.1451 18.7561 12.547 20.5357 11.4286V14.4286Z" stroke="black" stroke-linecap="round" stroke-linejoin="round"/>
</g>
<defs>
<clipPath id="clip0_2_156">
<rect width="7" height="8" fill="white" transform="translate(11 4)"/>
</clipPath>
<clipPath id="clip1_2_156">
<rect width="13" height="12" fill="white" transform="translate(8 11)"/>
</clipPath>
</defs>
</svg>
